# xmcd CD database file
#
# Track frame offsets:
#	150
#	14224
#	32990
#	58891
#	74801
#	99270
#	114556
#	134491
#
# Disc length: 1878 seconds
#
# Revision: 0
# Processed by: cddbd v1.5.2PL0 Copyright (c) Steve Scherf et al.
# Submitted via: CDex 1.77
#
DISCID=7d075408
DTITLE=Copper Moon - Songs
DYEAR=2006
DGENRE=Country
TTITLE0=I Still Miss Someone
TTITLE1=Church Street
TTITLE2=Cold Cold Heart
TTITLE3=City Lights
TTITLE4=Debbie's Down In Mexico
TTITLE5=Key's In The Mailbox
TTITLE6=One Day At A Time
TTITLE7=Am I That Easy To Forget
EXTD=YEAR: 2006
EXTT0=
EXTT1=
EXTT2=
EXTT3=
EXTT4=
EXTT5=
EXTT6=
EXTT7=
PLAYORDER=
